<svg xmlns="http://www.w3.org/2000/svg" width="1080" height="1080" viewBox="0 0 1080 1080">
  <defs>
    <radialGradient id="background" cx="50%" cy="50%" r="75%">
      <stop offset="0%" stop-color="#090608"/>
      <stop offset="50%" stop-color="#130d14"/>
      <stop offset="100%" stop-color="#020203"/>
    </radialGradient>
    <radialGradient id="ring" cx="50%" cy="50%" r="50%">
      <stop offset="0%" stop-color="rgba(232,190,106,0.21)"/>
      <stop offset="55%" stop-color="rgba(232,190,106,0.06)"/>
      <stop offset="100%" stop-color="rgba(232,190,106,0)"/>
    </radialGradient>
    <filter id="glow2" x="-30%" y="-30%" width="160%" height="160%">
      <feGaussianBlur in="SourceGraphic" stdDeviation="16" result="blur"/>
      <feMerge>
        <feMergeNode in="blur"/>
        <feMergeNode in="SourceGraphic"/>
      </feMerge>
    </filter>
  </defs>

  <rect width="1080" height="1080" fill="url(#background)" />
  <circle cx="540" cy="540" r="340" fill="rgba(255,240,205,0.02)" />
  <circle cx="540" cy="540" r="240" fill="none" stroke="rgba(232,190,106,0.28)" stroke-width="12" filter="url(#glow2)"/>
  <circle cx="540" cy="540" r="190" fill="none" stroke="rgba(232,190,106,0.16)" stroke-width="6" />
  <g filter="url(#glow2)">
    <circle cx="540" cy="540" r="80" fill="rgba(232,190,106,0.34)" />
  </g>

  <path d="M490,420 L590,420 C610,420 620,430 620,450 L620,630 C620,650 610,660 590,660 L490,660 C470,660 460,650 460,630 L460,450 C460,430 470,420 490,420 Z" fill="rgba(255,247,223,0.92)"/>
  <path d="M460,450 L620,450" stroke="rgba(37,24,32,0.55)" stroke-width="12"/>
  <path d="M540,410 L540,690" stroke="rgba(37,24,32,0.55)" stroke-width="18"/>
  <path d="M490,540 C510,520 530,520 550,540" stroke="rgba(37,24,32,0.55)" stroke-width="14" fill="none" stroke-linecap="round"/>

  <g opacity="0.2">
    <path d="M540,150 C620,240 720,260 780,340" stroke="#e8bc6a" stroke-width="6" fill="none"/>
    <path d="M470,150 C390,240 290,260 230,340" stroke="#7e6c9c" stroke-width="6" fill="none"/>
  </g>
</svg>