<svg xmlns="http://www.w3.org/2000/svg" width="1920" height="1080" viewBox="0 0 1920 1080">
  <defs>
    <linearGradient id="smokeg" x1="0" y1="0" x2="1" y2="1">
      <stop offset="0%" stop-color="rgba(35,18,45,0.16)"/>
      <stop offset="50%" stop-color="rgba(23,11,29,0.06)"/>
      <stop offset="100%" stop-color="rgba(3,3,6,0.2)"/>
    </linearGradient>
    <filter id="blur" x="-20%" y="-20%" width="140%" height="140%">
      <feGaussianBlur in="SourceGraphic" stdDeviation="45" />
    </filter>
  </defs>

  <rect width="1920" height="1080" fill="transparent" />
  <g filter="url(#blur)" opacity="0.42">
    <path d="M-180,300 C320,220 580,430 980,320 C1260,260 1460,180 1880,260 L1880,680 C1480,760 1220,660 940,740 C720,800 520,840 220,760 Z" fill="url(#smokeg)" />
    <path d="M-120,740 C240,620 460,760 840,700 C1060,660 1360,720 1780,740 L1780,980 C1240,1060 1000,940 640,1020 C420,1080 180,1040 -120,980 Z" fill="rgba(70,38,94,0.08)" />
    <path d="M0,520 C180,420 320,500 620,460 C840,430 1020,380 1320,430 C1560,490 1700,520 1920,520 L1920,960 L0,960 Z" fill="rgba(231,187,106,0.08)" />
  </g>
</svg>