<svg xmlns="http://www.w3.org/2000/svg" width="1080" height="1920" viewBox="0 0 1080 1920">
  <defs>
    <radialGradient id="bgvo" cx="52%" cy="22%" r="90%">
      <stop offset="0%" stop-color="#050307"/>
      <stop offset="40%" stop-color="#110912"/>
      <stop offset="100%" stop-color="#020204"/>
    </radialGradient>
    <linearGradient id="goldvo" x1="0" y1="0" x2="1" y2="1">
      <stop offset="0%" stop-color="rgba(233,186,107,0.2)"/>
      <stop offset="100%" stop-color="rgba(233,186,107,0)"/>
    </linearGradient>
    <filter id="glowvo" x="-30%" y="-30%" width="160%" height="160%">
      <feGaussianBlur in="SourceGraphic" stdDeviation="20" result="blur"/>
      <feMerge>
        <feMergeNode in="blur"/>
        <feMergeNode in="SourceGraphic"/>
      </feMerge>
    </filter>
  </defs>

  <rect width="1080" height="1920" fill="url(#bgvo)" />
  <rect x="70" y="120" width="940" height="1680" rx="42" fill="rgba(255,255,255,0.02)" stroke="rgba(255,236,166,0.14)" stroke-width="2"/>
  <ellipse cx="540" cy="560" rx="260" ry="130" fill="url(#goldvo)" filter="url(#glowvo)" opacity="0.28" />

  <g transform="translate(380 600)">
    <path d="M120,0 C176,0 214,42 234,104 C256,168 248,246 230,314 C208,398 180,462 150,518 C112,592 86,652 42,700 C24,724 12,756 8,794 C4,826 10,860 26,890 C50,940 90,978 140,1008 C194,1044 268,1060 320,1032 C376,1002 410,944 420,872 C432,780 408,688 360,624 C324,574 290,536 258,494 C228,458 202,422 178,392 C148,354 126,320 110,286 C92,248 86,206 94,170 C104,124 122,78 139,40 Z" fill="#060407"/>
    <path d="M108,86 C138,122 160,166 170,214" stroke="rgba(255,249,218,0.16)" stroke-width="10" fill="none" opacity="0.6"/>
  </g>

  <path d="M180,740 C260,640 360,590 470,610" stroke="#6f4f24" stroke-width="16" fill="none" opacity="0.24"/>
  <path d="M240,820 C340,760 470,730 590,760" stroke="#3d2930" stroke-width="14" fill="none" opacity="0.18"/>
</svg>