<svg xmlns="http://www.w3.org/2000/svg" width="1080" height="1920" viewBox="0 0 1080 1920">
  <defs>
    <radialGradient id="bgvm" cx="50%" cy="20%" r="90%">
      <stop offset="0%" stop-color="#080409"/>
      <stop offset="30%" stop-color="#110812"/>
      <stop offset="100%" stop-color="#020204"/>
    </radialGradient>
    <linearGradient id="goldvm" x1="0" y1="0" x2="1" y2="1">
      <stop offset="0%" stop-color="rgba(234,193,114,0.16)"/>
      <stop offset="100%" stop-color="rgba(234,193,114,0)"/>
    </linearGradient>
    <filter id="glowvm" x="-30%" y="-30%" width="160%" height="160%">
      <feGaussianBlur in="SourceGraphic" stdDeviation="18" result="blur"/>
      <feMerge>
        <feMergeNode in="blur"/>
        <feMergeNode in="SourceGraphic"/>
      </feMerge>
    </filter>
  </defs>

  <rect width="1080" height="1920" fill="url(#bgvm)" />
  <ellipse cx="540" cy="520" rx="360" ry="210" fill="url(#goldvm)" filter="url(#glowvm)" opacity="0.25" />

  <path d="M330,1920 C300,1080 320,630 430,340 C560,620 620,970 610,1920 Z" fill="#0d0811"/>
  <path d="M370,1920 C348,1080 380,640 470,380 C540,560 560,840 548,1920 Z" fill="#050306"/>

  <g transform="translate(320 520)">
    <path d="M110,0 C190,0 250,65 270,160 C292,290 272,430 250,510 C220,610 190,680 140,740 C44,840 0,780 0,620 C0,480 38,360 90,290 C120,260 150,230 185,196 Z" fill="#060409"/>
    <path d="M100,158 C130,126 150,98 146,82 C140,58 108,52 82,68 C56,84 44,112 52,148 C60,182 90,206 100,158 Z" fill="#18111d"/>
  </g>

  <path d="M150,650 C240,560 360,500 470,520" stroke="#5d3f77" stroke-width="18" fill="none" opacity="0.42" />
  <path d="M210,740 C320,660 420,630 530,650" stroke="#4e8aa7" stroke-width="16" fill="none" opacity="0.3" />
</svg>